# xmcd
#
# Track frame offsets: 
#        150
#        8078
#        28297
#        35622
#        46628
#        64794
#        77963
#        90416
#        103171
#        108235
#        126721
#        139214
#        152813
#        168473
#        181914
#        194014
#        203714
#        213877
#        233556
#        253433
#        270980
#        288553
#        299052
#
# Disc length: 4225 seconds
#
# Revision: 0
# Processed by: cddbd v1.5.2PL0 Copyright (c) Steve Scherf et al.
# Submitted via: ExactAudioCopy v0.95b3
#
DISCID=5b107f17
DTITLE=Jimi Hendrix  - Moonbeams and Fairytales - Disc 05
DYEAR=1900
DGENRE=
TTITLE0=Remember
TTITLE1=Remember
TTITLE2=Remember
TTITLE3=Remember
TTITLE4=Remember
TTITLE5=Remember
TTITLE6=Remember
TTITLE7=Remember
TTITLE8=Interview (Brian Matthew)
TTITLE9=Hey Joe
TTITLE10=Foxy Lady
TTITLE11=Foxy Lady
TTITLE12=Stone Free
TTITLE13=Love or Confusion
TTITLE14=I Don't Live Today
TTITLE15=I Don't Live Today
TTITLE16=I Don't Live Today
TTITLE17=I Don't Live Today
TTITLE18=I Don't Live Today
TTITLE19=I Don't Live Today
TTITLE20=I Don't Live Today
TTITLE21=I Don't Live Today
TTITLE22=I Don't Live Today
EXTD=
EXTT0=
EXTT1=
EXTT2=
EXTT3=
EXTT4=
EXTT5=
EXTT6=
EXTT7=
EXTT8=
EXTT9=
EXTT10=
EXTT11=
EXTT12=
EXTT13=
EXTT14=
EXTT15=
EXTT16=
EXTT17=
EXTT18=
EXTT19=
EXTT20=
EXTT21=
EXTT22=
PLAYORDER=
